<svg width="22" height="22" viewBox="0 0 22 22" fill="none" xmlns="http://www.w3.org/2000/svg">
<path d="M11 21C13.6522 21 16.1957 19.9464 18.0711 18.0711C19.9464 16.1957 21 13.6522 21 11C21 8.34784 19.9464 5.8043 18.0711 3.92893C16.1957 2.05357 13.6522 1 11 1C8.34784 1 5.8043 2.05357 3.92893 3.92893C2.05357 5.8043 1 8.34784 1 11C1 13.6522 2.05357 16.1957 3.92893 18.0711C5.8043 19.9464 8.34784 21 11 21Z" stroke="#494949" stroke-width="2" stroke-linecap="round" stroke-linejoin="round"/>
<path d="M6.28564 11.3571C6.99993 13.9286 9.85707 15.5 12.4285 14.7857C13.9999 14.2143 15.2856 12.9286 15.7142 11.3571M7.85707 7.71429C7.76235 7.71429 7.67151 7.67666 7.60453 7.60968C7.53756 7.5427 7.49993 7.45186 7.49993 7.35714C7.49993 7.26242 7.53756 7.17158 7.60453 7.10461C7.67151 7.03763 7.76235 7 7.85707 7C7.95179 7 8.04263 7.03763 8.10961 7.10461C8.17659 7.17158 8.21422 7.26242 8.21422 7.35714C8.21422 7.45186 8.17659 7.5427 8.10961 7.60968C8.04263 7.67666 7.95179 7.71429 7.85707 7.71429ZM14.1428 7.71429C14.0481 7.71429 13.9572 7.67666 13.8902 7.60968C13.8233 7.5427 13.7856 7.45186 13.7856 7.35714C13.7856 7.26242 13.8233 7.17158 13.8902 7.10461C13.9572 7.03763 14.0481 7 14.1428 7C14.2375 7 14.3283 7.03763 14.3953 7.10461C14.4623 7.17158 14.4999 7.26242 14.4999 7.35714C14.4999 7.45186 14.4623 7.5427 14.3953 7.60968C14.3283 7.67666 14.2375 7.71429 14.1428 7.71429Z" stroke="#494949" stroke-width="2" stroke-linecap="round" stroke-linejoin="round"/>
</svg>
