<svg width="20" height="20" viewBox="0 0 20 20" fill="none" xmlns="http://www.w3.org/2000/svg">
<path d="M1.5532 0.116271C0.704613 -0.308021 -0.236831 0.499134 0.053888 1.40272L2.09535 7.74782C2.13549 7.87256 2.20916 7.98385 2.30831 8.06952C2.40746 8.15519 2.52826 8.21193 2.6575 8.23354L11.1355 9.64714C11.5334 9.71357 11.5334 10.285 11.1355 10.3514L2.65822 11.7643C2.52885 11.7858 2.40789 11.8425 2.30861 11.9282C2.20932 12.0139 2.13554 12.1252 2.09535 12.25L0.053888 18.5973C-0.236831 19.5009 0.703898 20.308 1.5532 19.8837L19.4063 10.9586C20.1964 10.5636 20.1964 9.43713 19.4063 9.04141L1.5532 0.116271Z" fill="white"/>
</svg>
